<svg width="43" height="43" viewBox="0 0 43 43" fill="none" xmlns="http://www.w3.org/2000/svg">
<path fill-rule="evenodd" clip-rule="evenodd" d="M16.2188 15.8817L20.9719 11.2148C21.2636 10.9284 21.7364 10.9284 22.0281 11.2148L26.7812 15.8817C27.0729 16.1681 27.0729 16.6324 26.7812 16.9188C26.4896 17.2052 26.0167 17.2052 25.725 16.9188L22.2469 13.5038V22H20.7531V13.5038L17.275 16.9188C16.9833 17.2052 16.5104 17.2052 16.2188 16.9188C15.9271 16.6324 15.9271 16.1681 16.2188 15.8817Z" fill="#0080FF"/>
<path d="M25.0833 32.25V35.8333L28.6667 37.625V39.4167H14.3333L14.3262 37.6322L17.9167 35.8333V32.25H5.36067C5.1254 32.2486 4.89271 32.2008 4.67596 32.1093C4.4592 32.0178 4.26264 31.8844 4.09753 31.7168C3.93241 31.5492 3.802 31.3506 3.71377 31.1325C3.62553 30.9144 3.58121 30.6811 3.58333 30.4458V7.17921C3.58333 6.18304 4.39854 5.375 5.36067 5.375H37.6393C38.6212 5.375 39.4167 6.17946 39.4167 7.17921V30.4458C39.4167 31.442 38.6015 32.25 37.6393 32.25H25.0833ZM7.16667 8.95833V25.0833H35.8333V8.95833H7.16667Z" fill="#0080FF"/>
</svg>
